<?xml version="1.0" standalone="no"?>
<!DOCTYPE svg PUBLIC "-//W3C//DTD SVG 20010904//EN"
 "http://www.w3.org/TR/2001/REC-SVG-20010904/DTD/svg10.dtd">
<svg version="1.0" xmlns="http://www.w3.org/2000/svg"
 width="15pt" height="15pt" viewBox="0 0 512.000000 512.000000"
 preserveAspectRatio="xMidYMid meet">

<g transform="translate(0.000000,512.000000) scale(0.100000,-0.100000)"
fill="#000000" stroke="none">
<path d="M2410 4834 c-107 -10 -222 -26 -320 -45 -748 -149 -1394 -684 -1684
-1394 -250 -613 -228 -1306 59 -1900 300 -620 870 -1082 1540 -1246 207 -51
319 -63 555 -63 236 0 348 12 555 63 413 101 787 313 1090 616 674 673 868
1679 495 2562 -127 300 -351 610 -595 823 -362 316 -757 498 -1230 565 -102
15 -384 26 -465 19z m970 -2319 l0 -1335 -37 19 c-121 63 -2272 1308 -2273
1315 -2 8 2283 1332 2303 1335 4 1 7 -600 7 -1334z"/>
<path d="M2375 2949 c-390 -226 -720 -415 -732 -422 -20 -11 46 -51 708 -432
401 -231 734 -421 739 -423 7 -2 10 300 10 842 0 465 -3 846 -7 845 -5 0 -327
-185 -718 -410z"/>
</g>
</svg>
