<?xml version="1.0" standalone="no"?>
<!DOCTYPE svg PUBLIC "-//W3C//DTD SVG 20010904//EN"
 "http://www.w3.org/TR/2001/REC-SVG-20010904/DTD/svg10.dtd">
<svg version="1.0" xmlns="http://www.w3.org/2000/svg"
 width="23" height="22" viewBox="0 0 82.000000 77.000000"
 preserveAspectRatio="xMidYMid meet">

<g transform="translate(0.000000,77.000000) scale(0.100000,-0.100000)"
fill="#23A6F0" stroke="none">
<path d="M150 759 c-82 -16 -124 -63 -141 -154 -15 -79 -7 -449 10 -490 17
-41 49 -74 91 -93 27 -12 82 -16 255 -20 262 -5 339 5 390 50 54 47 60 77 60
323 0 247 -4 281 -42 326 -50 59 -73 63 -338 66 -132 1 -260 -2 -285 -8z m88
-281 c13 -71 49 -131 92 -153 l30 -16 0 116 0 115 45 0 45 0 0 -65 c0 -36 4
-65 9 -65 22 0 78 50 99 88 22 39 26 42 68 42 43 0 43 0 33 -27 -15 -42 -58
-100 -86 -118 l-24 -16 39 -29 c42 -30 76 -72 92 -114 9 -26 9 -26 -40 -26
-44 0 -52 3 -59 23 -9 24 -75 87 -91 87 -4 0 -15 3 -24 6 -14 5 -16 -3 -16
-54 l0 -60 -42 5 c-100 11 -165 47 -210 114 -32 48 -58 127 -58 176 0 32 1 33
43 33 l43 0 12 -62z"/>
</g>
</svg>
